Coordinates
version=1
nRows=26
nColumns=24
inDegrees=yes

Units are S.I. units (second, meters, Newtons, ...)
Angles are in degrees.

endheader
time	pelvis_tilt	pelvis_list	pelvis_rotation	pelvis_tx	pelvis_ty	pelvis_tz	hip_flexion_r	hip_adduction_r	hip_rotation_r	knee_angle_r	ankle_angle_r	subtalar_angle_r	mtp_angle_r	hip_flexion_l	hip_adduction_l	hip_rotation_l	knee_angle_l	ankle_angle_l	subtalar_angle_l	mtp_angle_l	lumbar_extension	lumbar_bending	lumbar_rotation
      0.74550000	     -4.36560183	      1.76144637	      0.67718862	     -0.38750398	      1.06581154	      0.33602395	     16.49175307	      1.49833482	     -1.10353411	    -20.72839314	     10.78621510	     -3.78149133	      3.64185799	     23.05140716	     -3.48664287	     -3.86107535	    -71.33591635	     11.72138845	     11.48940927	      2.70178278	     -9.64177896	      4.20917243	      2.66526387
      0.74966667	     -4.34856377	      1.86608631	      0.50598911	     -0.38238910	      1.06669859	      0.33662059	     16.03884164	      1.44760108	     -0.96810462	    -20.43306839	     10.85814070	     -3.70050931	      3.63598343	     23.49682942	     -3.46681648	     -4.03287920	    -70.86948075	     11.96148489	     11.69412676	      2.73123264	     -9.62549839	      4.05027540	      2.76611182
      0.75383333	     -4.31328350	      1.96364113	      0.33303356	     -0.37730221	      1.06759025	      0.33722738	     15.56264366	      1.40582810	     -0.81565041	    -20.12583331	     10.94238883	     -3.63503385	      3.62915597	     23.91356343	     -3.45802998	     -4.20287590	    -70.36475487	     12.17973351	     11.90720219	      2.76249669	     -9.65053277	      3.89532956	      2.92075502
      0.75800000	     -4.25735280	      2.06230897	      0.16196734	     -0.37225314	      1.06848407	      0.33782914	     15.06231796	      1.36328233	     -0.64379690	    -19.80829311	     11.02862355	     -3.61013962	      3.61379091	     24.29947658	     -3.44326381	     -4.36050247	    -69.82106962	     12.36314378	     12.09352616	      2.81314615	     -9.72176366	      3.74575622	      3.19773780
      0.76216667	     -4.25257474	      2.16124134	     -0.01645388	     -0.36716781	      1.06924983	      0.33845509	     14.62102230	      1.31978209	     -0.47454838	    -19.50076707	     11.10001106	     -3.58055894	      3.59286940	     24.72833497	     -3.44049236	     -4.54231878	    -69.24742012	     12.52780854	     12.20801409	      2.87325122	     -9.70345419	      3.57096488	      3.42034493
      0.76633333	     -4.23611860	      2.27087565	     -0.20217057	     -0.36210760	      1.06999895	      0.33908093	     14.17582325	      1.26190781	     -0.30362558	    -19.20636536	     11.17345332	     -3.51371483	      3.58615063	     25.13065957	     -3.42818423	     -4.73311756	    -68.63373478	     12.68054263	     12.28178941	      2.89712818	     -9.70250335	      3.40486171	      3.49330764
      0.77050000	     -4.19127723	      2.36032396	     -0.37492478	     -0.35706625	      1.07076721	      0.33968763	     13.68790391	      1.22412467	     -0.12331826	    -18.88564645	     11.25218055	     -3.52161422	      3.56500772	     25.49614915	     -3.43134742	     -4.89956854	    -67.98915972	     12.80514201	     12.35402012	      2.94767702	     -9.74615879	      3.25130106	      3.75893221
      0.77466667	     -4.18786074	      2.46530006	     -0.56064907	     -0.35202643	      1.07141909	      0.34031576	     13.25945756	      1.16797192	      0.05595440	    -18.59073660	     11.32290302	     -3.46528548	      3.55740551	     25.89262105	     -3.42688592	     -5.08994837	    -67.31210256	     12.92347520	     12.36679947	      2.96789836	     -9.73058953	      3.08729758	      3.83445979
      0.77883333	     -4.17948594	      2.57501367	     -0.74142723	     -0.34699470	      1.07204738	      0.34091488	     12.82651723	      1.10308874	      0.24178422	    -18.29898302	     11.40863038	     -3.45831944	      3.54451425	     26.26959517	     -3.40840009	     -5.26688736	    -66.59191433	     13.00728970	     12.35643173	      2.99393060	     -9.72353421	      2.93080818	      4.00912974
      0.78300000	     -4.16886121	      2.67415894	     -0.91542689	     -0.34197067	      1.07263942	      0.34151343	     12.38800605	      1.04627690	      0.41717580	    -17.99866319	     11.48624583	     -3.43784527	      3.53155040	     26.63816070	     -3.40303706	     -5.43931346	    -65.85060203	     13.07468172	     12.30034384	      3.01689367	     -9.72282368	      2.76436302	      4.16476202
      0.78716667	     -4.15859513	      2.77785449	     -1.08680325	     -0.33696000	      1.07319437	      0.34209573	     11.95462909	      0.98042845	      0.58923679	    -17.70611559	     11.57111547	     -3.41767099	      3.51833398	     26.99426454	     -3.38691501	     -5.60375572	    -65.07289876	     13.12684588	     12.21536889	      3.03710106	     -9.72075826	      2.60157421	      4.31662836
      0.79133333	     -4.14521556	      2.85138393	     -1.23893670	     -0.33196668	      1.07368878	      0.34263926	     11.51027593	      0.94216515	      0.74881580	    -17.39890242	     11.65619613	     -3.42812017	      3.49094766	     27.34855748	     -3.39384790	     -5.73617314	    -64.28698017	     13.15947752	     12.09759672	      3.07310188	     -9.72874951	      2.45912734	      4.54991527
      0.79550000	     -4.14942054	      2.95236352	     -1.39974911	     -0.32697122	      1.07413822	      0.34318461	     11.09753260	      0.87131172	      0.90554936	    -17.11509583	     11.75056191	     -3.40366875	      3.46960673	     27.69923226	     -3.37103080	     -5.88263059	    -63.45046290	     13.17453006	     11.94687625	      3.09743214	     -9.70867604	      2.30360630	      4.66927785
      0.79966667	     -4.15103864	      3.04051750	     -1.55320181	     -0.32199603	      1.07454489	      0.34370217	     10.68190290	      0.80975112	      1.05645124	    -16.82960239	     11.84172933	     -3.38033355	      3.44715525	     28.04056792	     -3.35588856	     -6.01254215	    -62.59241268	     13.17475021	     11.76536900	      3.11837681	     -9.69918001	      2.16258455	      4.79419204
      0.80383333	     -4.16969619	      3.12474753	     -1.69963534	     -0.31701717	      1.07487383	      0.34420516	     10.28417493	      0.74945694	      1.20177700	    -16.54214872	     11.93212178	     -3.32943093	      3.43703462	     28.39220456	     -3.34221095	     -6.13661461	    -61.71576031	     13.17501218	     11.58306544	      3.12504628	     -9.67188072	      2.01735045	      4.85191617
      0.80800000	     -4.15067862	      3.20919533	     -1.83701150	     -0.31208000	      1.07522962	      0.34464753	      9.85619847	      0.67998213	      1.32138978	    -16.27695058	     12.04214251	     -3.31965663	      3.41091558	     28.68945925	     -3.30565378	     -6.22493482	    -60.79675568	     13.12460879	     11.31652511	      3.14077382	     -9.69083888	      1.89722315	      5.01509458
      0.81216667	     -4.18505947	      3.28792696	     -1.97818073	     -0.30713502	      1.07543949	      0.34510021	      9.48945113	      0.61877794	      1.45880134	    -16.01626406	     12.13973962	     -3.28350824	      3.39692463	     29.03562911	     -3.28393700	     -6.32266400	    -59.86418992	     13.08643612	     11.08111581	      3.14528266	     -9.64855767	      1.77928494	      5.07812553
      0.81633333	     -4.19626677	      3.35703396	     -2.10216868	     -0.30220605	      1.07565140	      0.34550135	      9.09484130	      0.56034274	      1.57057818	    -15.75061452	     12.24772311	     -3.25253313	      3.38152080	     29.34868613	     -3.25439623	     -6.38748196	    -58.90760479	     13.02372813	     10.79861715	      3.14706542	     -9.63718496	      1.66930699	      5.15795690
      0.82050000	     -4.19353853	      3.42286361	     -2.21925175	     -0.29729184	      1.07585166	      0.34587326	      8.68686496	      0.50052708	      1.66878593	    -15.48772315	     12.35977667	     -3.21538646	      3.36464456	     29.63481870	     -3.21852667	     -6.43732711	    -57.92311163	     12.94582036	     10.49914278	      3.14677299	     -9.64740427	      1.56551733	      5.23413264
      0.82466667	     -4.21339327	      3.48186375	     -2.33092151	     -0.29238299	      1.07596223	      0.34621802	      8.30680118	      0.44576251	      1.76238738	    -15.23193580	     12.47512346	     -3.17338720	      3.34784225	     29.93583922	     -3.18320914	     -6.47007087	    -56.91966643	     12.86081556	     10.19485391	      3.14385795	     -9.63332259	      1.47225605	      5.29829038
      0.82883333	     -4.21574357	      3.53465695	     -2.43283812	     -0.28749350	      1.07606224	      0.34652749	      7.90932406	      0.39233490	      1.83891286	    -14.97863304	     12.59580154	     -3.12508697	      3.33023276	     30.20825033	     -3.14256743	     -6.48268005	    -55.89411358	     12.76384486	      9.87351527	      3.13801001	     -9.64516787	      1.39075578	      5.35297141
      0.83300000	     -4.23931026	      3.56620804	     -2.52812974	     -0.28261379	      1.07606952	      0.34679618	      7.53583100	      0.35980479	      1.91379509	    -14.72841890	     12.71377534	     -3.08087303	      3.31288504	     30.49804220	     -3.11691099	     -6.47474652	    -54.85927416	     12.66330794	      9.55066977	      3.12951994	     -9.63532181	      1.33607986	      5.39493096
      0.83716667	     -4.25951832	      3.60989255	     -2.61819127	     -0.27773626	      1.07605938	      0.34704404	      7.16369025	      0.30998618	      1.97337841	    -14.48812405	     12.84003610	     -3.02869627	      3.29359755	     30.76667126	     -3.06832087	     -6.45321068	    -53.78934451	     12.54836939	      9.21780075	      3.11789559	     -9.63258740	      1.27037063	      5.42508457
      0.84133333	     -4.28983630	      3.63022401	     -2.69997430	     -0.27287655	      1.07596557	      0.34725806	      6.80274410	      0.28378548	      2.02844715	    -14.24929784	     12.96660952	     -2.97374256	      3.27551769	     31.04263486	     -3.03746816	     -6.40998671	    -52.71490131	     12.43578699	      8.89324168	      3.10401274	     -9.62354443	      1.23494683	      5.44570078
      0.84550000	     -4.29511162	      3.65169512	     -2.77703620	     -0.26801781	      1.07589578	      0.34745216	      6.41341670	      0.25222651	      2.07259429	    -14.00833476	     13.09342857	     -2.91542021	      3.25634391	     31.27446881	     -2.99437132	     -6.35082893	    -51.61018899	     12.31582499	      8.56422739	      3.08737491	     -9.64465276	      1.19653245	      5.45516665
      0.84966667	     -4.32638106	      3.65831885	     -2.84527396	     -0.26317257	      1.07571642	      0.34760424	      6.05666171	      0.23481034	      2.10931000	    -13.77833504	     13.22628630	     -2.85547658	      3.23686813	     31.52907812	     -2.95995591	     -6.27185450	    -50.49871819	     12.19936139	      8.24236017	      3.06863141	     -9.63890008	      1.18390531	      5.45717471
